<?xml version="1.0" standalone="no"?>
<!DOCTYPE svg PUBLIC "-//W3C//DTD SVG 20010904//EN"
 "http://www.w3.org/TR/2001/REC-SVG-20010904/DTD/svg10.dtd">
<svg version="1.0" xmlns="http://www.w3.org/2000/svg"
 width="262.000000pt" height="262.000000pt" viewBox="0 0 262.000000 262.000000"
 preserveAspectRatio="xMidYMid meet">
<metadata>
Created by potrace 1.11, written by Peter Selinger 2001-2013
</metadata>
<g transform="translate(0.000000,262.000000) scale(0.100000,-0.100000)"
fill="#000000" stroke="none">
<path d="M2192 2577 c-28 -29 -32 -39 -32 -90 0 -44 -3 -57 -15 -57 -17 0 -17
3 -5 -80 5 -35 5 -67 1 -70 -5 -3 -11 -39 -14 -80 -3 -41 -12 -113 -21 -160
-13 -75 -24 -150 -26 -172 0 -5 -7 -8 -15 -8 -8 0 -22 -14 -31 -31 -14 -27
-14 -44 -5 -122 6 -56 7 -96 1 -107 -12 -22 -27 -90 -35 -155 -3 -27 -10 -52
-16 -55 -5 -4 -51 -1 -102 6 -240 33 -439 44 -564 30 l-62 -7 -9 33 c-6 23 -3
57 8 110 14 63 14 78 3 82 -21 8 -15 36 7 36 22 0 23 3 20 73 -1 35 2 47 13
47 21 0 26 45 23 190 -1 69 0 136 4 150 15 58 -83 270 -125 270 -7 0 -30 12
-51 27 -58 39 -123 50 -336 57 -65 3 -122 7 -126 10 -5 3 -25 3 -45 1 -20 -3
-39 0 -42 5 -11 18 -44 11 -116 -25 -39 -20 -96 -41 -127 -47 -46 -9 -74 -24
-149 -81 -78 -58 -95 -76 -109 -116 -10 -25 -33 -63 -51 -84 -18 -20 -33 -43
-33 -50 -1 -6 -3 -28 -6 -48 -4 -26 3 -58 24 -112 19 -50 26 -79 19 -86 -16
-16 31 -81 64 -88 21 -4 36 -18 58 -58 26 -45 35 -54 68 -60 20 -4 49 -13 64
-20 32 -17 242 -22 279 -7 14 5 32 17 39 26 15 17 36 22 26 6 -4 -6 7 -10 25
-10 43 0 129 66 129 100 1 16 18 44 46 73 42 45 44 50 38 92 -4 29 -1 50 7 60
15 18 16 101 2 137 -25 62 -169 111 -322 111 -88 0 -101 -3 -174 -37 -91 -42
-148 -97 -137 -131 4 -11 9 -42 10 -69 3 -55 56 -150 91 -161 11 -3 33 -17 49
-31 l29 -24 53 24 c63 29 132 104 142 155 6 29 2 41 -25 77 -34 44 -47 49
-120 45 -34 -1 -36 11 -6 39 25 23 33 24 92 9 55 -14 105 -63 112 -111 7 -40
-42 -200 -75 -247 -25 -35 -93 -54 -178 -50 -32 2 -68 -2 -80 -9 -20 -11 -26
-7 -78 66 -31 42 -68 95 -81 118 -23 39 -23 42 -7 74 9 19 21 73 27 122 l11
87 95 80 c88 73 102 81 190 106 52 15 102 36 111 45 8 10 38 21 65 24 43 6 64
2 145 -28 87 -32 99 -41 161 -106 95 -101 126 -209 86 -300 -16 -37 -19 -66
-18 -160 1 -161 1 -158 16 -164 11 -4 10 -13 -5 -49 -10 -24 -25 -69 -32 -101
-15 -67 -20 -70 -124 -81 -38 -3 -83 -8 -100 -10 -16 -3 -73 -7 -125 -11 -52
-3 -111 -7 -130 -9 -19 -1 -53 -7 -75 -13 -22 -6 -57 -13 -78 -16 -43 -7 -81
-24 -150 -69 -38 -25 -56 -47 -83 -99 -33 -65 -36 -91 -10 -101 7 -3 16 -23
20 -45 4 -29 15 -48 38 -66 18 -14 40 -33 49 -41 12 -12 22 -13 40 -6 13 5 41
12 61 16 28 4 42 13 53 34 8 16 23 31 34 34 10 2 26 16 36 30 14 21 14 29 3
47 -24 39 -92 77 -146 82 -45 4 -51 2 -56 -16 -5 -20 10 -40 37 -49 6 -2 6
-10 -1 -24 -10 -17 -17 -20 -39 -14 -14 4 -31 15 -37 24 -16 26 14 98 53 124
35 23 111 43 169 43 20 0 51 9 67 20 41 27 64 25 180 -16 55 -19 120 -37 145
-40 72 -8 76 -17 46 -116 -40 -129 -72 -287 -91 -443 -12 -93 -15 -105 -56
-198 -39 -90 -40 -95 -44 -227 l-4 -135 41 -38 c63 -60 96 -77 126 -66 19 7
29 6 40 -5 14 -13 19 -13 44 2 15 9 28 22 28 29 0 6 7 16 16 21 11 6 13 11 5
16 -8 5 -7 12 1 26 10 16 9 23 -9 42 -19 20 -21 33 -18 93 3 74 12 123 26 141
5 5 10 37 13 70 3 32 12 91 20 130 13 63 17 102 15 169 -1 51 29 183 49 215
12 19 22 38 22 42 0 4 8 9 18 12 14 5 21 23 29 74 6 37 6 69 2 70 -5 2 -9 8
-9 12 0 13 30 5 70 -18 25 -14 56 -20 106 -21 84 -3 139 16 149 51 17 51 77
53 142 3 62 -47 104 -58 247 -64 17 -1 18 -8 13 -93 -4 -51 -13 -118 -20 -149
-12 -48 -11 -58 1 -78 13 -19 13 -28 2 -62 -13 -38 -9 -93 13 -199 3 -14 8
-54 12 -89 8 -81 68 -196 126 -241 58 -47 154 -71 273 -69 l99 2 43 40 c25 24
46 54 50 71 3 17 21 59 40 93 27 51 32 67 24 88 -5 14 -7 25 -3 25 4 0 -5 13
-20 28 -15 16 -25 35 -23 43 3 8 -12 27 -35 46 -35 28 -45 31 -87 27 -145 -17
-181 -50 -173 -158 3 -38 43 -127 64 -145 10 -7 37 -14 61 -15 l44 -1 -15 -26
c-35 -58 -151 -76 -212 -32 -54 40 -65 83 -66 253 -1 85 2 168 6 183 5 16 11
63 14 105 3 42 10 92 16 110 8 24 8 37 -1 47 -8 10 -6 30 11 85 12 40 19 83
16 99 -8 41 2 71 24 71 11 0 27 9 36 20 10 11 24 20 32 20 9 0 24 11 36 25 16
21 36 28 110 41 92 16 155 39 155 56 0 5 9 22 19 37 11 15 23 40 27 55 l7 29
-57 -7 c-39 -4 -79 -18 -131 -47 -68 -37 -83 -41 -155 -43 -44 -2 -80 0 -80 4
0 4 7 27 15 51 9 24 13 49 11 56 -3 8 2 13 14 13 29 0 53 63 45 121 -15 107
-14 164 5 205 25 57 85 122 117 126 39 5 50 29 34 80 -24 81 -23 91 7 148 31
58 72 182 72 218 0 39 -131 151 -181 155 -13 1 -40 14 -60 30 -20 15 -38 27
-40 27 -3 0 -19 -15 -37 -33z m-1736 -565 c24 2 45 0 45 -4 9 -52 -8 -101 -42
-120 -27 -16 -33 -16 -59 -3 -23 12 -33 28 -46 73 -8 31 -18 65 -21 75 -4 17
-1 17 37 -3 30 -15 56 -21 86 -18z m1969 -1569 c18 -18 13 -82 -8 -95 -29 -19
-56 -8 -65 25 -8 27 -6 36 16 60 30 32 35 33 57 10z"/>
</g>
</svg>
